G75*
%MOIN*%
%OFA0B0*%
%FSLAX24Y24*%
%IPPOS*%
%LPD*%
%AMOC8*
5,1,8,0,0,1.08239X$1,22.5*
%
%ADD10C,0.0000*%
%ADD11C,0.0520*%
%ADD12R,0.0177X0.0590*%
%ADD13R,0.0640X0.0640*%
%ADD14OC8,0.0640*%
%ADD15OC8,0.0520*%
%ADD16C,0.0520*%
%ADD17R,0.1024X0.0237*%
%ADD18R,0.1024X0.0827*%
%ADD19C,0.0394*%
%ADD20OC8,0.0890*%
%ADD21OC8,0.0670*%
%ADD22C,0.0670*%
%ADD23C,0.0640*%
%ADD24C,0.0780*%
D10*
X000650Y000400D02*
X000650Y020085D01*
X020335Y020085D01*
X020335Y000400D01*
X040020Y000400D01*
X040020Y020085D01*
X020335Y020085D01*
X017973Y010924D02*
X017975Y010950D01*
X017981Y010976D01*
X017991Y011001D01*
X018004Y011024D01*
X018020Y011044D01*
X018040Y011062D01*
X018062Y011077D01*
X018085Y011089D01*
X018111Y011097D01*
X018137Y011101D01*
X018163Y011101D01*
X018189Y011097D01*
X018215Y011089D01*
X018239Y011077D01*
X018260Y011062D01*
X018280Y011044D01*
X018296Y011024D01*
X018309Y011001D01*
X018319Y010976D01*
X018325Y010950D01*
X018327Y010924D01*
X018325Y010898D01*
X018319Y010872D01*
X018309Y010847D01*
X018296Y010824D01*
X018280Y010804D01*
X018260Y010786D01*
X018238Y010771D01*
X018215Y010759D01*
X018189Y010751D01*
X018163Y010747D01*
X018137Y010747D01*
X018111Y010751D01*
X018085Y010759D01*
X018061Y010771D01*
X018040Y010786D01*
X018020Y010804D01*
X018004Y010824D01*
X017991Y010847D01*
X017981Y010872D01*
X017975Y010898D01*
X017973Y010924D01*
X017973Y009191D02*
X017975Y009217D01*
X017981Y009243D01*
X017991Y009268D01*
X018004Y009291D01*
X018020Y009311D01*
X018040Y009329D01*
X018062Y009344D01*
X018085Y009356D01*
X018111Y009364D01*
X018137Y009368D01*
X018163Y009368D01*
X018189Y009364D01*
X018215Y009356D01*
X018239Y009344D01*
X018260Y009329D01*
X018280Y009311D01*
X018296Y009291D01*
X018309Y009268D01*
X018319Y009243D01*
X018325Y009217D01*
X018327Y009191D01*
X018325Y009165D01*
X018319Y009139D01*
X018309Y009114D01*
X018296Y009091D01*
X018280Y009071D01*
X018260Y009053D01*
X018238Y009038D01*
X018215Y009026D01*
X018189Y009018D01*
X018163Y009014D01*
X018137Y009014D01*
X018111Y009018D01*
X018085Y009026D01*
X018061Y009038D01*
X018040Y009053D01*
X018020Y009071D01*
X018004Y009091D01*
X017991Y009114D01*
X017981Y009139D01*
X017975Y009165D01*
X017973Y009191D01*
X020335Y000400D02*
X000650Y000400D01*
D11*
X004660Y004150D02*
X005140Y004150D01*
X005140Y005150D02*
X004660Y005150D01*
X004660Y006150D02*
X005140Y006150D01*
X005140Y007150D02*
X004660Y007150D01*
X004660Y008150D02*
X005140Y008150D01*
X005140Y009150D02*
X004660Y009150D01*
X004660Y010150D02*
X005140Y010150D01*
X005140Y011150D02*
X004660Y011150D01*
X004660Y012150D02*
X005140Y012150D01*
X005140Y013150D02*
X004660Y013150D01*
X004660Y014150D02*
X005140Y014150D01*
X005140Y015150D02*
X004660Y015150D01*
X004660Y016150D02*
X005140Y016150D01*
X005140Y017150D02*
X004660Y017150D01*
X007660Y017150D02*
X008140Y017150D01*
X008140Y016150D02*
X007660Y016150D01*
X007660Y015150D02*
X008140Y015150D01*
X008140Y014150D02*
X007660Y014150D01*
X007660Y013150D02*
X008140Y013150D01*
X008140Y012150D02*
X007660Y012150D01*
X007660Y011150D02*
X008140Y011150D01*
X008140Y010150D02*
X007660Y010150D01*
X007660Y009150D02*
X008140Y009150D01*
X008140Y008150D02*
X007660Y008150D01*
X007660Y007150D02*
X008140Y007150D01*
X008140Y006150D02*
X007660Y006150D01*
X007660Y005150D02*
X008140Y005150D01*
X008140Y004150D02*
X007660Y004150D01*
X021335Y003077D02*
X021335Y002597D01*
X022335Y002597D02*
X022335Y003077D01*
X023335Y003077D02*
X023335Y002597D01*
X024335Y002597D02*
X024335Y003077D01*
X025335Y003077D02*
X025335Y002597D01*
X026335Y002597D02*
X026335Y003077D01*
X027335Y003077D02*
X027335Y002597D01*
X028335Y002597D02*
X028335Y003077D01*
X029835Y003077D02*
X029835Y002597D01*
X030835Y002597D02*
X030835Y003077D01*
X031835Y003077D02*
X031835Y002597D01*
X032835Y002597D02*
X032835Y003077D01*
X033835Y003077D02*
X033835Y002597D01*
X034835Y002597D02*
X034835Y003077D01*
X035835Y003077D02*
X035835Y002597D01*
X036835Y002597D02*
X036835Y003077D01*
X037835Y003077D02*
X037835Y002597D01*
X037835Y005597D02*
X037835Y006077D01*
X036835Y006077D02*
X036835Y005597D01*
X035835Y005597D02*
X035835Y006077D01*
X034835Y006077D02*
X034835Y005597D01*
X033835Y005597D02*
X033835Y006077D01*
X032835Y006077D02*
X032835Y005597D01*
X031835Y005597D02*
X031835Y006077D01*
X030835Y006077D02*
X030835Y005597D01*
X029835Y005597D02*
X029835Y006077D01*
X028335Y006077D02*
X028335Y005597D01*
X027335Y005597D02*
X027335Y006077D01*
X026335Y006077D02*
X026335Y005597D01*
X025335Y005597D02*
X025335Y006077D01*
X024335Y006077D02*
X024335Y005597D01*
X023335Y005597D02*
X023335Y006077D01*
X022335Y006077D02*
X022335Y005597D01*
X021335Y005597D02*
X021335Y006077D01*
X021335Y014408D02*
X021335Y014888D01*
X022335Y014888D02*
X022335Y014408D01*
X023335Y014408D02*
X023335Y014888D01*
X024335Y014888D02*
X024335Y014408D01*
X025335Y014408D02*
X025335Y014888D01*
X026335Y014888D02*
X026335Y014408D01*
X027335Y014408D02*
X027335Y014888D01*
X028335Y014888D02*
X028335Y014408D01*
X029819Y014408D02*
X029819Y014888D01*
X030819Y014888D02*
X030819Y014408D01*
X031819Y014408D02*
X031819Y014888D01*
X032819Y014888D02*
X032819Y014408D01*
X033819Y014408D02*
X033819Y014888D01*
X034819Y014888D02*
X034819Y014408D01*
X035819Y014408D02*
X035819Y014888D01*
X036819Y014888D02*
X036819Y014408D01*
X037819Y014408D02*
X037819Y014888D01*
X037819Y017408D02*
X037819Y017888D01*
X036819Y017888D02*
X036819Y017408D01*
X035819Y017408D02*
X035819Y017888D01*
X034819Y017888D02*
X034819Y017408D01*
X033819Y017408D02*
X033819Y017888D01*
X032819Y017888D02*
X032819Y017408D01*
X031819Y017408D02*
X031819Y017888D01*
X030819Y017888D02*
X030819Y017408D01*
X029819Y017408D02*
X029819Y017888D01*
X028335Y017888D02*
X028335Y017408D01*
X027335Y017408D02*
X027335Y017888D01*
X026335Y017888D02*
X026335Y017408D01*
X025335Y017408D02*
X025335Y017888D01*
X024335Y017888D02*
X024335Y017408D01*
X023335Y017408D02*
X023335Y017888D01*
X022335Y017888D02*
X022335Y017408D01*
X021335Y017408D02*
X021335Y017888D01*
D12*
X018563Y016839D03*
X018307Y016839D03*
X018052Y016839D03*
X017796Y016839D03*
X017540Y016839D03*
X017284Y016839D03*
X017028Y016839D03*
X016772Y016839D03*
X016516Y016839D03*
X016260Y016839D03*
X016004Y016839D03*
X015748Y016839D03*
X015493Y016839D03*
X015237Y016839D03*
X015237Y013961D03*
X015493Y013961D03*
X015748Y013961D03*
X016004Y013961D03*
X016260Y013961D03*
X016516Y013961D03*
X016772Y013961D03*
X017028Y013961D03*
X017284Y013961D03*
X017540Y013961D03*
X017796Y013961D03*
X018052Y013961D03*
X018307Y013961D03*
X018563Y013961D03*
D13*
X012400Y001150D03*
D14*
X011400Y001150D03*
X011400Y002150D03*
X012400Y002150D03*
X012400Y003150D03*
X011400Y003150D03*
D15*
X011900Y005400D03*
X011150Y005900D03*
X010400Y005400D03*
X010400Y006400D03*
X011900Y006400D03*
X013150Y006400D03*
X013150Y005400D03*
X016150Y004400D03*
X016150Y003400D03*
X017150Y006404D03*
X018150Y006404D03*
X018900Y006404D03*
X019900Y006404D03*
X013150Y007650D03*
X011900Y007650D03*
X011150Y008150D03*
X010400Y007650D03*
X010400Y008650D03*
X011900Y008650D03*
X013150Y008650D03*
X013150Y009900D03*
X011900Y009900D03*
X011150Y010400D03*
X010400Y009900D03*
X010400Y010900D03*
X011900Y010900D03*
X013150Y010900D03*
X013150Y012150D03*
X011900Y012150D03*
X011150Y012650D03*
X010400Y012150D03*
X010400Y013150D03*
X011900Y013150D03*
X013150Y013150D03*
X011150Y014150D03*
X009900Y014150D03*
X009900Y015150D03*
X011150Y015150D03*
X003650Y011900D03*
X003650Y009900D03*
X001525Y008400D03*
X001525Y006400D03*
X001525Y005650D03*
X001525Y003650D03*
X019650Y014400D03*
X019650Y016400D03*
D16*
X003150Y007350D03*
X003150Y005450D03*
D17*
X017166Y009428D03*
X017166Y009743D03*
X017166Y010057D03*
X017166Y010372D03*
X017166Y010687D03*
D18*
X017166Y011829D03*
X019331Y011829D03*
X019331Y008286D03*
X017166Y008286D03*
D19*
X018150Y009191D03*
X018150Y010924D03*
D20*
X021319Y013195D03*
X027225Y013195D03*
X033130Y013195D03*
X039036Y013195D03*
X039036Y015164D03*
X039036Y017132D03*
X039036Y019101D03*
X033130Y019101D03*
X027225Y019101D03*
X021319Y019101D03*
X011150Y019150D03*
X009900Y019150D03*
X021319Y007290D03*
X027225Y007290D03*
X033130Y007290D03*
X039036Y007290D03*
X039036Y005321D03*
X039036Y003353D03*
X039036Y001384D03*
X033130Y001384D03*
X027225Y001384D03*
X021319Y001384D03*
D21*
X018150Y018650D03*
D22*
X019150Y018650D03*
D23*
X019680Y004665D03*
X017120Y004665D03*
X017120Y002885D03*
X019680Y002885D03*
D24*
X016898Y001754D02*
X016898Y001014D01*
X015898Y001014D02*
X015898Y001754D01*
X023772Y001754D02*
X023772Y001014D01*
X024772Y001014D02*
X024772Y001754D01*
X035583Y001754D02*
X035583Y001014D01*
X036583Y001014D02*
X036583Y001754D01*
X021689Y009743D02*
X020949Y009743D01*
X020949Y010743D02*
X021689Y010743D01*
X023772Y018731D02*
X023772Y019471D01*
X024772Y019471D02*
X024772Y018731D01*
X016898Y018731D02*
X016898Y019471D01*
X015898Y019471D02*
X015898Y018731D01*
X005087Y018731D02*
X005087Y019471D01*
X004087Y019471D02*
X004087Y018731D01*
X002004Y010743D02*
X001264Y010743D01*
X001264Y009743D02*
X002004Y009743D01*
X004087Y001754D02*
X004087Y001014D01*
X005087Y001014D02*
X005087Y001754D01*
X035583Y018731D02*
X035583Y019471D01*
X036583Y019471D02*
X036583Y018731D01*
M02*
