%
M48
M72
T01C0.0236
T02C0.0320
T03C0.0354
T04C0.0400
T05C0.0440
%
T01
X29106Y3524
X31835Y3708
X32835Y4014
X33835Y4259
X34835Y4504
X35835Y4749
X24901Y7290
X22761Y12390
X23803Y12390
X25339Y15523
X31520Y15345
X32309Y15590
X32815Y15713
X33819Y15958
X34823Y16264
X35808Y16509
X6400Y14650
T02
X21335Y2837
X22335Y2837
X23335Y2837
X24335Y2837
X25335Y2837
X26335Y2837
X27335Y2837
X28335Y2837
X29835Y2837
X30835Y2837
X31835Y2837
X32835Y2837
X33835Y2837
X34835Y2837
X35835Y2837
X36835Y2837
X37835Y2837
X37835Y5837
X36835Y5837
X35835Y5837
X34835Y5837
X33835Y5837
X32835Y5837
X31835Y5837
X30835Y5837
X29835Y5837
X28335Y5837
X27335Y5837
X26335Y5837
X25335Y5837
X24335Y5837
X23335Y5837
X22335Y5837
X21335Y5837
X19900Y6404
X18900Y6404
X18150Y6404
X17150Y6404
X16150Y4400
X16150Y3400
X13150Y5400
X11900Y5400
X11150Y5900
X10400Y5400
X10400Y6400
X11900Y6400
X13150Y6400
X13150Y7650
X11900Y7650
X11150Y8150
X10400Y7650
X10400Y8650
X11900Y8650
X13150Y8650
X13150Y9900
X11900Y9900
X11150Y10400
X10400Y9900
X10400Y10900
X11900Y10900
X13150Y10900
X13150Y12150
X11900Y12150
X11150Y12650
X10400Y12150
X10400Y13150
X11900Y13150
X13150Y13150
X11150Y14150
X9900Y14150
X9900Y15150
X11150Y15150
X7900Y15150
X7900Y14150
X7900Y13150
X7900Y12150
X7900Y11150
X7900Y10150
X7900Y9150
X7900Y8150
X7900Y7150
X7900Y6150
X7900Y5150
X7900Y4150
X4900Y4150
X4900Y5150
X4900Y6150
X4900Y7150
X4900Y8150
X4900Y9150
X3650Y9900
X4900Y10150
X4900Y11150
X3650Y11900
X4900Y12150
X4900Y13150
X4900Y14150
X4900Y15150
X4900Y16150
X4900Y17150
X7900Y17150
X7900Y16150
X19150Y18650
X18150Y18650
X21335Y17648
X22335Y17648
X23335Y17648
X24335Y17648
X25335Y17648
X26335Y17648
X27335Y17648
X28335Y17648
X29819Y17648
X30819Y17648
X31819Y17648
X32819Y17648
X33819Y17648
X34819Y17648
X35819Y17648
X36819Y17648
X37819Y17648
X37819Y14648
X36819Y14648
X35819Y14648
X34819Y14648
X33819Y14648
X32819Y14648
X31819Y14648
X30819Y14648
X29819Y14648
X28335Y14648
X27335Y14648
X26335Y14648
X25335Y14648
X24335Y14648
X23335Y14648
X22335Y14648
X21335Y14648
X19650Y14400
X19650Y16400
X3150Y7350
X1525Y6400
X1525Y5650
X3150Y5450
X1525Y3650
X1525Y8400
T03
X18150Y10924
X18150Y9191
T04
X21319Y19101
X27225Y19101
X33130Y19101
X39036Y19101
X39036Y17132
X39036Y15164
X39036Y13195
X33130Y13195
X27225Y13195
X21319Y13195
X21319Y7290
X19680Y4665
X17120Y4665
X17120Y2885
X19680Y2885
X21319Y1384
X11400Y1150
X12400Y1150
X12400Y2150
X11400Y2150
X11400Y3150
X12400Y3150
X27225Y1384
X33130Y1384
X39036Y1384
X39036Y3353
X39036Y5321
X39036Y7290
X33130Y7290
X27225Y7290
X11150Y19150
X9900Y19150
T05
X23772Y1384
X24772Y1384
X16898Y1384
X15898Y1384
X5087Y1384
X4087Y1384
X21319Y9743
X21319Y10743
X16898Y19101
X15898Y19101
X4087Y19101
X5087Y19101
X1634Y10743
X1634Y9743
X23772Y19101
X24772Y19101
X35583Y19101
X36583Y19101
X36583Y1384
X35583Y1384
M30
