G75*
%MOIN*%
%OFA0B0*%
%FSLAX24Y24*%
%IPPOS*%
%LPD*%
%AMOC8*
5,1,8,0,0,1.08239X$1,22.5*
%
%ADD10C,0.0000*%
D10*
X000650Y000400D02*
X000650Y020085D01*
X020335Y020085D01*
X020335Y000400D01*
X040020Y000400D01*
X040020Y020085D01*
X020335Y020085D01*
X017973Y010924D02*
X017975Y010950D01*
X017981Y010976D01*
X017991Y011001D01*
X018004Y011024D01*
X018020Y011044D01*
X018040Y011062D01*
X018062Y011077D01*
X018085Y011089D01*
X018111Y011097D01*
X018137Y011101D01*
X018163Y011101D01*
X018189Y011097D01*
X018215Y011089D01*
X018239Y011077D01*
X018260Y011062D01*
X018280Y011044D01*
X018296Y011024D01*
X018309Y011001D01*
X018319Y010976D01*
X018325Y010950D01*
X018327Y010924D01*
X018325Y010898D01*
X018319Y010872D01*
X018309Y010847D01*
X018296Y010824D01*
X018280Y010804D01*
X018260Y010786D01*
X018238Y010771D01*
X018215Y010759D01*
X018189Y010751D01*
X018163Y010747D01*
X018137Y010747D01*
X018111Y010751D01*
X018085Y010759D01*
X018061Y010771D01*
X018040Y010786D01*
X018020Y010804D01*
X018004Y010824D01*
X017991Y010847D01*
X017981Y010872D01*
X017975Y010898D01*
X017973Y010924D01*
X017973Y009191D02*
X017975Y009217D01*
X017981Y009243D01*
X017991Y009268D01*
X018004Y009291D01*
X018020Y009311D01*
X018040Y009329D01*
X018062Y009344D01*
X018085Y009356D01*
X018111Y009364D01*
X018137Y009368D01*
X018163Y009368D01*
X018189Y009364D01*
X018215Y009356D01*
X018239Y009344D01*
X018260Y009329D01*
X018280Y009311D01*
X018296Y009291D01*
X018309Y009268D01*
X018319Y009243D01*
X018325Y009217D01*
X018327Y009191D01*
X018325Y009165D01*
X018319Y009139D01*
X018309Y009114D01*
X018296Y009091D01*
X018280Y009071D01*
X018260Y009053D01*
X018238Y009038D01*
X018215Y009026D01*
X018189Y009018D01*
X018163Y009014D01*
X018137Y009014D01*
X018111Y009018D01*
X018085Y009026D01*
X018061Y009038D01*
X018040Y009053D01*
X018020Y009071D01*
X018004Y009091D01*
X017991Y009114D01*
X017981Y009139D01*
X017975Y009165D01*
X017973Y009191D01*
X020335Y000400D02*
X000650Y000400D01*
M02*
